<?xml version="1.0" encoding="UTF-8" standalone="no"?>
<svg
   id="svg"
   version="1.1"
   width="807.19092"
   height="201.02864"
   viewBox="0 0 807.19092 201.02864"
   sodipodi:docname="nathaj.svg"
   inkscape:version="1.2.2 (732a01da63, 2022-12-09)"
   xmlns:inkscape="http://www.inkscape.org/namespaces/inkscape"
   xmlns:sodipodi="http://sodipodi.sourceforge.net/DTD/sodipodi-0.dtd"
   xmlns:xlink="http://www.w3.org/1999/xlink"
   xmlns="http://www.w3.org/2000/svg"
   xmlns:svg="http://www.w3.org/2000/svg">
  <defs
     id="defs9">
    <linearGradient
       inkscape:collect="always"
       id="linearGradient1030">
      <stop
         style="stop-color:#274b5b;stop-opacity:1;"
         offset="0"
         id="stop1026" />
      <stop
         style="stop-color:#3b5f6f;stop-opacity:1;"
         offset="1"
         id="stop1028" />
    </linearGradient>
    <rect
       x="245.5"
       y="57"
       width="517"
       height="220"
       id="rect391" />
    <rect
       x="234.5"
       y="49.5"
       width="401.5"
       height="184.5"
       id="rect335" />
    <linearGradient
       inkscape:collect="always"
       id="linearGradient45777">
      <stop
         style="stop-color:#ececeb;stop-opacity:1;"
         offset="0"
         id="stop45773" />
      <stop
         style="stop-color:#e4e3df;stop-opacity:1;"
         offset="1"
         id="stop45775" />
    </linearGradient>
    <linearGradient
       inkscape:collect="always"
       id="linearGradient34788">
      <stop
         style="stop-color:#ff3850;stop-opacity:1;"
         offset="0"
         id="stop35518" />
      <stop
         style="stop-color:#fcd53a;stop-opacity:1;"
         offset="0.90335566"
         id="stop34786" />
    </linearGradient>
    <linearGradient
       inkscape:collect="always"
       id="linearGradient26243">
      <stop
         style="stop-color:#103f5a;stop-opacity:1;"
         offset="0"
         id="stop26239" />
      <stop
         style="stop-color:#3b5f6f;stop-opacity:1;"
         offset="1"
         id="stop26241" />
    </linearGradient>
    <linearGradient
       inkscape:collect="always"
       id="linearGradient23300">
      <stop
         style="stop-color:#274b5b;stop-opacity:1;"
         offset="0"
         id="stop23296" />
      <stop
         style="stop-color:#3b5f6f;stop-opacity:1;"
         offset="1"
         id="stop23298" />
    </linearGradient>
    <linearGradient
       inkscape:collect="always"
       id="linearGradient21817">
      <stop
         style="stop-color:#274b5b;stop-opacity:1;"
         offset="0"
         id="stop21813" />
      <stop
         style="stop-color:#3b5f6f;stop-opacity:1;"
         offset="1"
         id="stop21815" />
    </linearGradient>
    <linearGradient
       inkscape:collect="always"
       id="linearGradient20333">
      <stop
         style="stop-color:#7195a7;stop-opacity:1;"
         offset="0"
         id="stop20329" />
      <stop
         style="stop-color:#3b5f6f;stop-opacity:1;"
         offset="1"
         id="stop20331" />
    </linearGradient>
    <linearGradient
       inkscape:collect="always"
       id="linearGradient18869">
      <stop
         style="stop-color:#274b5b;stop-opacity:1;"
         offset="0"
         id="stop18865" />
      <stop
         style="stop-color:#3b5f6f;stop-opacity:1;"
         offset="1"
         id="stop18867" />
    </linearGradient>
    <linearGradient
       inkscape:collect="always"
       id="linearGradient15953">
      <stop
         style="stop-color:#afafab;stop-opacity:1;"
         offset="0"
         id="stop15949" />
      <stop
         style="stop-color:#e4e3df;stop-opacity:1;"
         offset="1"
         id="stop15951" />
    </linearGradient>
    <linearGradient
       inkscape:collect="always"
       id="linearGradient14490">
      <stop
         style="stop-color:#7195a7;stop-opacity:1;"
         offset="0"
         id="stop14486" />
      <stop
         style="stop-color:#3b5f6f;stop-opacity:1"
         offset="1"
         id="stop14488" />
    </linearGradient>
    <linearGradient
       inkscape:collect="always"
       xlink:href="#linearGradient14490"
       id="linearGradient14492"
       x1="-2.70158"
       y1="23.835682"
       x2="52.973251"
       y2="33.210682"
       gradientUnits="userSpaceOnUse" />
    <linearGradient
       inkscape:collect="always"
       xlink:href="#linearGradient15953"
       id="linearGradient15955"
       x1="156.1033"
       y1="174.59212"
       x2="111.57855"
       y2="230.399"
       gradientUnits="userSpaceOnUse" />
    <linearGradient
       inkscape:collect="always"
       xlink:href="#linearGradient18869"
       id="linearGradient18871"
       x1="195.32761"
       y1="267.758"
       x2="250.67374"
       y2="271.02057"
       gradientUnits="userSpaceOnUse" />
    <linearGradient
       inkscape:collect="always"
       xlink:href="#linearGradient20333"
       id="linearGradient20335"
       x1="249.02289"
       y1="241.23007"
       x2="266.32849"
       y2="247.54257"
       gradientUnits="userSpaceOnUse" />
    <linearGradient
       inkscape:collect="always"
       xlink:href="#linearGradient21817"
       id="linearGradient21819"
       x1="151.37469"
       y1="220.01607"
       x2="225.27527"
       y2="251.51607"
       gradientUnits="userSpaceOnUse" />
    <linearGradient
       inkscape:collect="always"
       xlink:href="#linearGradient23300"
       id="linearGradient23302"
       x1="72.416954"
       y1="217.05293"
       x2="128.34821"
       y2="221.55293"
       gradientUnits="userSpaceOnUse" />
    <linearGradient
       inkscape:collect="always"
       xlink:href="#linearGradient26243"
       id="linearGradient26245"
       x1="-61.909622"
       y1="212.0341"
       x2="258.3248"
       y2="114.2841"
       gradientUnits="userSpaceOnUse" />
    <radialGradient
       inkscape:collect="always"
       xlink:href="#linearGradient34788"
       id="radialGradient38430"
       cx="147.17227"
       cy="242.33289"
       fx="147.17227"
       fy="242.33289"
       r="82.032639"
       gradientUnits="userSpaceOnUse"
       gradientTransform="matrix(2.6577915,-1.8191779,1.2787473,1.8682306,-558.83039,63.266221)" />
    <linearGradient
       inkscape:collect="always"
       xlink:href="#linearGradient45777"
       id="linearGradient45779"
       x1="74.969521"
       y1="205.15442"
       x2="267.02072"
       y2="116.41251"
       gradientUnits="userSpaceOnUse" />
    <linearGradient
       inkscape:collect="always"
       xlink:href="#linearGradient1030"
       id="linearGradient1032"
       x1="42.037895"
       y1="116.897"
       x2="742.97363"
       y2="111.24825"
       gradientUnits="userSpaceOnUse" />
  </defs>
  <sodipodi:namedview
     id="namedview7"
     pagecolor="#ffffff"
     bordercolor="#000000"
     borderopacity="0.25"
     inkscape:showpageshadow="2"
     inkscape:pageopacity="0.0"
     inkscape:pagecheckerboard="0"
     inkscape:deskcolor="#d1d1d1"
     showgrid="false"
     inkscape:zoom="2"
     inkscape:cx="456.25"
     inkscape:cy="87.5"
     inkscape:window-width="3440"
     inkscape:window-height="1377"
     inkscape:window-x="1272"
     inkscape:window-y="-8"
     inkscape:window-maximized="1"
     inkscape:current-layer="svgg" />
  <g
     id="svgg"
     transform="translate(-78.166954,-102.72033)"
     style="display:inline"
     inkscape:label="svgg">
    <circle
       style="display:none;fill:#ff0000;fill-opacity:1"
       id="path11159"
       cy="198.06285"
       cx="215.03735"
       r="94.782639"
       inkscape:label="cercle guide" />
    <circle
       style="display:inline;fill:url(#radialGradient38430);fill-opacity:1"
       id="circle30240"
       cy="198.06285"
       cx="215.03735"
       inkscape:label="planete"
       r="82.032639" />
    <path
       id="rect44292"
       style="display:inline;fill:#000000;fill-opacity:0.204255"
       d="m 251.50294,271.10004 c -14.75688,9.7612 -64.79686,8.41866 -45.64084,-23.16943 -46.45347,9.98883 -47.15443,-39.95715 -22.5206,-58.60853 0.61546,0.64677 3.13044,0.718 2.04129,1.7941 -19.92235,19.68371 -22.89802,66.53919 24.96719,53.33007 -17.04115,35.43858 26.90705,31.23974 40.837,25.09198 0.0376,0.43252 0.0595,1.25782 0.31596,1.56181 z m -43.82226,-91.70148 c 38.5501,-17.10366 47.60741,-39.40551 54.45003,-48.51757 -0.25016,-0.15384 -2.01632,-1.37075 -2.21604,-1.51392 -21.8969,27.26115 -37.20142,40.12313 -56.65857,47.78123 0.26,0.99573 1.76486,13.57546 6.59446,36.35844 13.2046,-13.09202 -2.42488,-34.6823 -2.16988,-34.10818 z m 65.11277,76.91588 c -1.81726,-7.37902 -4.52305,-24.33112 -1.81536,-37.97112 -0.5844,0.51115 -1.46267,1.20728 -2.29482,1.89663 -1.31231,4.41209 -3.34777,15.78579 1.48183,38.56877 0.37724,-0.35305 1.34031,-1.20672 2.62835,-2.49428 z"
       inkscape:label="ombre"
       sodipodi:nodetypes="cccscccccccccccccc" />
    <path
       id="path1"
       d="m 179.29983,271.69373 c -24.582,-16.588 -29.82669,-46.20798 -10.67669,-68.82398 4.15203,-4.90422 13.47167,-12.3095 14.4305,-13.16528 0.41914,-0.28621 11.00166,-6.26903 22.02,-11.66988 31.97018,-13.32582 48.20955,-35.50496 61.23996,-59.68702 -1.88458,-1.33525 -5.13687,-3.1665 -5.79875,-3.48877 -7.06432,-2.05206 -20.53546,0.72823 -30.00672,3.72741 -6.59591,2.08866 -31.58055,5.59951 -46.22077,9.69292 -12.8133,3.5826 -34.10431,24.4272 -59.94137,37.06934 -15.87,8.13228 -28.041465,20.71911 -33.466563,32.56252 3.206623,-0.70077 17.362923,-4.68429 49.527693,-12.03526 -1.65874,2.98228 -24.3711,48.13847 8.71286,81.97189 10.24383,10.47589 28.31597,19.87574 44.11022,23.2424 22.98173,4.89872 42.23644,1.12447 57.59111,-5.2411 -24.04954,-0.0329 -63.53741,-8.7679 -71.52148,-14.15519 z"
       stroke="none"
       fill="#fbfbfb"
       fill-rule="evenodd"
       sodipodi:nodetypes="ccccccsscccsscc"
       style="display:inline;fill:url(#linearGradient45779);fill-opacity:1"
       inkscape:label="ventre" />
    <path
       id="path15946"
       d="m 91.056204,198.35293 c 3.206623,-0.70077 17.186146,-5.12623 49.350916,-12.4772 -1.65874,2.98228 -24.3711,48.13847 8.71286,81.97189 -11.89786,-42.83737 -2.43403,-61.37426 7.33599,-91.99556 -30.68404,-2.17201 -49.9517,5.17523 -65.399766,22.50087 z"
       stroke="none"
       fill="#fbfbfb"
       fill-rule="evenodd"
       sodipodi:nodetypes="ccccc"
       style="display:inline;fill:url(#linearGradient15955);fill-opacity:1"
       inkscape:label="gauche" />
    <path
       id="path0"
       d="m 207.022,102.96959 c -22.66438,1.39167 -48.40453,11.88624 -64.55445,31.91756 -1.42358,1.76572 -4.09815,4.59761 -6.33127,8.07859 -0.13438,-3.31453 2.73118,-7.25745 5.00393,-9.65026 -9.34312,-6.76031 -35.78219,-8.29884 -50.549835,4.02793 18.806085,0.29622 29.203075,14.00424 33.787725,28.00449 15.98692,-5.58386 31.04481,-11.04502 46.8039,-11.0509 -0.093,-4.94223 0.0226,-11.23227 0.1595,-16.0735 2.71707,8.18897 5.29055,16.74785 10.40967,22.48341 -0.56054,-9.15904 -5.76278,-24.32747 -1.96904,-28.95341 1.97409,8.8304 6.12247,20.11081 11.40322,24.75221 -1.3054,-7.0363 -2.54861,-20.40679 -2.28335,-27.77171 1.60366,3.36498 4.60669,11.50767 6.87634,16.59734 0.30521,-4.57991 0.80237,-8.02835 1.06857,-12.20093 1.77911,-1.02338 1.92986,-1.16754 2.96709,-1.68541 20.762,-10.363 48.31422,-18.82172 60.76079,-16.54991 -19.61593,-10.82194 -35.88226,-13.01053 -53.55279,-11.9255 z"
       stroke="none"
       fill="#52646e"
       fill-rule="evenodd"
       inkscape:label="corps"
       sodipodi:nodetypes="ssccccccccccccccs"
       style="display:inline;fill:url(#linearGradient26245);fill-opacity:1" />
    <path
       d="m 182.178,190.309 c -17.62,13.017 -25.36,26.316 -25.303,43.48 1.00388,49.69603 68.57356,65.48512 98.0333,50.2304 5.56972,9.12991 25.40001,18.88706 44.11697,12.40674 -30.12263,-14.26078 -34.22801,-53.28854 -30.07179,-77.44206 -12.03171,11.09847 -20.17031,45.45259 -17.93615,52.11698 -15.58003,9.63436 -65.21181,6.75216 -43.76487,-24.27921 -43.24251,11.65689 -43.30172,-29.89815 -31.72946,-48.57985 1.609,-2.427 2.82512,-4.02927 7.80062,-8.71077 4.6005,3.131 17.81738,12.26377 23.74138,20.11077 1.86752,2.47395 2.58982,3.53189 2.93308,3.96364 7.8913,-12.31247 -0.58089,-29.17597 -4.93346,-35.57784 -7.16579,3.2084 -15.21938,7.03913 -22.88662,12.2812 z"
       style="display:inline;fill:url(#linearGradient21819);fill-opacity:1;fill-rule:evenodd;stroke:none"
       id="path21797"
       inkscape:label="bas"
       sodipodi:nodetypes="ccccccccccccc" />
    <path
       d="m 57.969326,40.24803 c -0.13438,-3.31453 2.73118,-7.25745 5.00393,-9.65026 -9.34312,-6.76031 -35.78219,-8.29884 -50.549835,4.02793 15.621692,-1.327137 30.26153,-0.759563 45.545905,5.62233 z"
       style="display:inline;fill:url(#linearGradient14492);fill-opacity:1;fill-rule:evenodd;stroke:none"
       id="path14448"
       sodipodi:nodetypes="cccc"
       transform="translate(78.166954,102.71771)"
       inkscape:label="dorsale" />
    <path
       id="path2"
       d="m 231.11218,136.21513 c -4.325,2.066 -10.479,5.97 -13.131,8.33 l -1.562,1.391 3.14,-1.517 c 16.08226,-5.84447 32.54263,-5.90607 19.67424,11.3946 3.34036,-2.92443 9.24216,-9.77923 11.70972,-13.17322 6.35266,-8.7377 -6.66796,-12.71338 -19.83096,-6.42538 z"
       stroke="none"
       fill="#56bdeb"
       fill-rule="evenodd"
       sodipodi:nodetypes="cccccsc"
       style="display:inline;fill:#ce998b;fill-opacity:1"
       inkscape:label="bouche" />
    <path
       id="path17411"
       d="m 251.01733,271.10106 c -15.58003,9.63436 -65.21181,6.75216 -43.76487,-24.27921 -42.06804,34.58524 23.59796,39.51264 43.76487,24.27921 z"
       stroke="none"
       fill="#52646e"
       fill-rule="evenodd"
       inkscape:label="2e dorsale"
       sodipodi:nodetypes="ccc"
       style="display:inline;fill:url(#linearGradient18871);fill-opacity:1" />
    <path
       id="path20327"
       d="m 268.95348,218.98408 c -12.03171,11.09847 -20.17031,45.45259 -17.93615,52.11698 1.08155,-0.72604 6.25383,-4.51946 7.62677,-5.74005 -2.07831,-13.74368 5.62376,-40.26012 10.30938,-46.37693 z"
       stroke="none"
       fill="#52646e"
       fill-rule="evenodd"
       inkscape:label="corps"
       sodipodi:nodetypes="cccc"
       style="display:inline;fill:url(#linearGradient20335);fill-opacity:1" />
    <path
       d="m 78.166954,212.28107 c 12.726502,-5.39593 26.443896,-12.02044 40.280626,-15.42763 -0.58215,25.07176 11.39378,54.33373 30.65063,70.97021 -14.0496,-20.37394 -18.54246,-57.94174 -8.12921,-82.41765 -18.53003,-0.43309 -33.0851,4.90146 -48.649,11.86 5.20724,-10.32419 16.93423,-22.22351 23.82754,-26.9838 -22.472647,6.20246 -35.596193,26.15387 -37.980586,41.99887 z"
       style="display:inline;fill:url(#linearGradient23302);fill-opacity:1;fill-rule:evenodd;stroke:none"
       id="path23281"
       inkscape:label="gauche" />
    <text
       xml:space="preserve"
       transform="translate(78.166954,102.71771)"
       id="text333"
       style="white-space:pre;shape-inside:url(#rect335);display:inline;fill:#000000;fill-opacity:0.204255" />
    <g
       aria-label="Näthaj"
       transform="matrix(1.150697,0,0,1.150697,29.221344,32.437371)"
       id="text389"
       style="font-size:160px;font-family:Righteous;-inkscape-font-specification:'Righteous, Normal';white-space:pre;shape-inside:url(#rect391);display:inline;fill:url(#linearGradient1032)">
      <path
         d="m 345.5,203.90523 h -23.98438 l -43.20312,-73.75 v 73.75 H 255.89062 V 91.87398 H 279.875 l 43.20312,73.82813 V 91.87398 H 345.5 Z"
         id="path1871" />
      <path
         d="M 445.03125,203.90523 H 439.875 l -8.28125,-11.48437 q -3.04688,2.73437 -6.48438,5.15625 -3.35937,2.34375 -7.10937,4.14062 -3.75,1.71875 -7.73438,2.73438 -3.90625,1.01562 -7.96875,1.01562 -8.82812,0 -16.64062,-2.96875 -7.73438,-2.96875 -13.59375,-8.59375 -5.78125,-5.70312 -9.14063,-13.90625 -3.35937,-8.20312 -3.35937,-18.67187 0,-9.76563 3.35937,-17.89063 3.35938,-8.20312 9.14063,-14.0625 5.85937,-5.85937 13.59375,-9.0625 7.8125,-3.28125 16.64062,-3.28125 4.0625,0 8.04688,1.01563 3.98437,1.01562 7.73437,2.8125 3.75,1.79687 7.10938,4.21875 3.4375,2.42187 6.40625,5.23437 l 8.28125,-9.92187 h 5.15625 z m -21.48438,-42.57812 q 0,-4.375 -1.71875,-8.4375 -1.64062,-4.14063 -4.53125,-7.26563 -2.89062,-3.20312 -6.79687,-5.07812 -3.82813,-1.95313 -8.20313,-1.95313 -4.375,0 -8.28125,1.48438 -3.82812,1.48437 -6.71875,4.375 -2.8125,2.89062 -4.45312,7.1875 -1.64063,4.21875 -1.64063,9.6875 0,5.46875 1.64063,9.76562 1.64062,4.21875 4.45312,7.10938 2.89063,2.89062 6.71875,4.375 3.90625,1.48437 8.28125,1.48437 4.375,0 8.20313,-1.875 3.90625,-1.95312 6.79687,-5.07812 2.89063,-3.20313 4.53125,-7.26563 1.71875,-4.14062 1.71875,-8.51562 z m 2.73438,-58.82813 q 0,2.03125 -0.78125,3.82813 -0.70313,1.79687 -2.03125,3.20312 -1.25,1.32813 -3.04688,2.10938 -1.71875,0.78125 -3.67187,0.78125 -2.03125,0 -3.90625,-0.78125 -1.79688,-0.78125 -3.125,-2.10938 -1.32813,-1.40625 -2.10938,-3.20312 -0.78125,-1.79688 -0.78125,-3.82813 0,-1.95312 0.78125,-3.75 0.78125,-1.796875 2.10938,-3.125 1.32812,-1.328125 3.125,-2.109375 1.875,-0.78125 3.90625,-0.78125 1.95312,0 3.67187,0.78125 1.79688,0.78125 3.04688,2.109375 1.32812,1.328125 2.03125,3.125 0.78125,1.79688 0.78125,3.75 z m -28.125,-0.15625 q 0,2.10938 -0.78125,3.98438 -0.78125,1.79687 -2.1875,3.20312 -1.32813,1.32813 -3.125,2.10938 -1.79688,0.78125 -3.82813,0.78125 -2.03125,0 -3.90625,-0.78125 -1.79687,-0.78125 -3.20312,-2.10938 -1.32813,-1.40625 -2.1875,-3.20312 -0.78125,-1.875 -0.78125,-3.98438 0,-2.03125 0.78125,-3.828125 0.85937,-1.796875 2.1875,-3.125 1.40625,-1.40625 3.20312,-2.1875 1.875,-0.78125 3.90625,-0.78125 2.03125,0 3.82813,0.78125 1.79687,0.78125 3.125,2.1875 1.40625,1.328125 2.1875,3.125 0.78125,1.796875 0.78125,3.828125 z"
         id="path1873" />
      <path
         d="m 503.23437,203.90523 q -7.73437,0 -14.53125,-2.89062 -6.79687,-2.96875 -11.95312,-8.04688 -5.07813,-5.15625 -8.04688,-11.95312 -2.89062,-6.79688 -2.89062,-14.53125 v -24.84375 h -10.39063 v -21.25 H 465.8125 V 86.952105 h 21.25 v 33.437505 h 32.34375 v 21.25 H 487.0625 v 24.84375 q 0,3.35937 1.25,6.32812 1.25,2.89063 3.4375,5.07813 2.1875,2.1875 5.15625,3.51562 2.96875,1.25 6.32812,1.25 h 16.17188 v 21.25 z"
         id="path1875" />
      <path
         d="M 552.6875,203.90523 H 531.35937 V 86.952105 h 21.32813 v 36.953125 q 3.82812,-2.89062 7.89062,-4.0625 4.0625,-1.25 8.28125,-1.25 7.73438,0 14.53125,2.96875 6.79688,2.89063 11.79688,8.04688 5.07812,5.07812 7.96875,11.95312 2.96875,6.79688 2.96875,14.53125 v 47.8125 h -21.48438 v -47.8125 h 0.15625 q 0,-3.28125 -1.25,-6.17187 -1.25,-2.96875 -3.4375,-5.15625 -2.1875,-2.1875 -5.07812,-3.4375 -2.89063,-1.25 -6.17188,-1.25 -3.35937,0 -6.32812,1.25 -2.96875,1.25 -5.15625,3.4375 -2.1875,2.1875 -3.4375,5.15625 -1.25,2.89062 -1.25,6.17187 z"
         id="path1877" />
      <path
         d="m 702.29687,203.90523 h -5.15625 l -8.28125,-11.48437 q -3.04687,2.73437 -6.48437,5.15625 -3.35938,2.34375 -7.10938,4.14062 -3.75,1.71875 -7.73437,2.73438 -3.90625,1.01562 -7.96875,1.01562 -8.82813,0 -16.64063,-2.96875 -7.73437,-2.96875 -13.59375,-8.59375 -5.78125,-5.70312 -9.14062,-13.90625 -3.35938,-8.20312 -3.35938,-18.67187 0,-9.76563 3.35938,-17.89063 3.35937,-8.20312 9.14062,-14.0625 5.85938,-5.85937 13.59375,-9.0625 7.8125,-3.28125 16.64063,-3.28125 4.0625,0 8.04687,1.01563 3.98438,1.01562 7.73438,2.8125 3.75,1.79687 7.10937,4.21875 3.4375,2.42187 6.40625,5.23437 l 8.28125,-9.92187 h 5.15625 z M 680.8125,161.32711 q 0,-4.375 -1.71875,-8.4375 -1.64063,-4.14063 -4.53125,-7.26563 -2.89063,-3.20312 -6.79688,-5.07812 -3.82812,-1.95313 -8.20312,-1.95313 -4.375,0 -8.28125,1.48438 -3.82813,1.48437 -6.71875,4.375 -2.8125,2.89062 -4.45313,7.1875 -1.64062,4.21875 -1.64062,9.6875 0,5.46875 1.64062,9.76562 1.64063,4.21875 4.45313,7.10938 2.89062,2.89062 6.71875,4.375 3.90625,1.48437 8.28125,1.48437 4.375,0 8.20312,-1.875 3.90625,-1.95312 6.79688,-5.07812 2.89062,-3.20313 4.53125,-7.26563 1.71875,-4.14062 1.71875,-8.51562 z"
         id="path1879" />
      <path
         d="m 744.01562,97.49898 q 0,2.96875 -1.17187,5.54688 -1.09375,2.57812 -3.04688,4.53125 -1.875,1.875 -4.53125,3.04687 -2.57812,1.09375 -5.46875,1.09375 -3.04687,0 -5.70312,-1.09375 -2.57813,-1.17187 -4.53125,-3.04687 -1.95313,-1.95313 -3.125,-4.53125 -1.09375,-2.57813 -1.09375,-5.54688 0,-2.890625 1.09375,-5.46875 1.17187,-2.65625 3.125,-4.53125 1.95312,-1.953125 4.53125,-3.046875 2.65625,-1.171875 5.70312,-1.171875 2.89063,0 5.46875,1.171875 2.65625,1.09375 4.53125,3.046875 1.95313,1.875 3.04688,4.53125 1.17187,2.578125 1.17187,5.46875 z M 686.75,235.78023 v -21.48437 l 11.79687,0.15625 q 4.29688,0 7.96875,-1.79688 3.67188,-1.71875 6.32813,-4.6875 2.73437,-2.89062 4.29687,-6.71875 1.5625,-3.82812 1.5625,-8.04687 V 120.23336 H 740.5 v 72.96875 h -0.15625 q -0.0781,5.85937 -1.64063,11.32812 -1.48437,5.46875 -4.29687,10.15625 -2.8125,4.76563 -6.71875,8.59375 -3.90625,3.90625 -8.67188,6.64063 -4.6875,2.8125 -10.07812,4.29687 -5.46875,1.5625 -11.32813,1.5625 z"
         id="path1881" />
    </g>
  </g>
</svg>
