<?xml version="1.0" encoding="UTF-8" standalone="no"?>
<svg
   id="svg"
   version="1.1"
   width="220.85832"
   height="195.80611"
   viewBox="0 0 220.85832 195.80611"
   xmlns="http://www.w3.org/2000/svg">
  <defs
     id="defs9">
    <rect
       x="245.5"
       y="57"
       width="517"
       height="220"
       id="rect391" />
    <rect
       x="234.5"
       y="49.5"
       width="401.5"
       height="184.5"
       id="rect335" />
    <linearGradient
       id="linearGradient45777">
      <stop
         style="stop-color:#ececeb;stop-opacity:1;"
         offset="0"
         id="stop45773" />
      <stop
         style="stop-color:#e4e3df;stop-opacity:1;"
         offset="1"
         id="stop45775" />
    </linearGradient>
    <linearGradient
       id="linearGradient26243">
      <stop
         style="stop-color:#103f5a;stop-opacity:1;"
         offset="0"
         id="stop26239" />
      <stop
         style="stop-color:#3b5f6f;stop-opacity:1;"
         offset="1"
         id="stop26241" />
    </linearGradient>
    <linearGradient
       id="linearGradient23300">
      <stop
         style="stop-color:#274b5b;stop-opacity:1;"
         offset="0"
         id="stop23296" />
      <stop
         style="stop-color:#3b5f6f;stop-opacity:1;"
         offset="1"
         id="stop23298" />
    </linearGradient>
    <linearGradient
       id="linearGradient21817">
      <stop
         style="stop-color:#274b5b;stop-opacity:1;"
         offset="0"
         id="stop21813" />
      <stop
         style="stop-color:#3b5f6f;stop-opacity:1;"
         offset="1"
         id="stop21815" />
    </linearGradient>
    <linearGradient
       id="linearGradient20333">
      <stop
         style="stop-color:#7195a7;stop-opacity:1;"
         offset="0"
         id="stop20329" />
      <stop
         style="stop-color:#3b5f6f;stop-opacity:1;"
         offset="1"
         id="stop20331" />
    </linearGradient>
    <linearGradient
       id="linearGradient18869">
      <stop
         style="stop-color:#274b5b;stop-opacity:1;"
         offset="0"
         id="stop18865" />
      <stop
         style="stop-color:#3b5f6f;stop-opacity:1;"
         offset="1"
         id="stop18867" />
    </linearGradient>
    <linearGradient
       id="linearGradient15953">
      <stop
         style="stop-color:#afafab;stop-opacity:1;"
         offset="0"
         id="stop15949" />
      <stop
         style="stop-color:#e4e3df;stop-opacity:1;"
         offset="1"
         id="stop15951" />
    </linearGradient>
    <linearGradient
       id="linearGradient14490">
      <stop
         style="stop-color:#7195a7;stop-opacity:1;"
         offset="0"
         id="stop14486" />
      <stop
         style="stop-color:#3b5f6f;stop-opacity:1"
         offset="1"
         id="stop14488" />
    </linearGradient>
    <linearGradient
       xlink:href="#linearGradient14490"
       id="linearGradient14492"
       x1="-2.70158"
       y1="23.835682"
       x2="52.973251"
       y2="33.210682"
       gradientUnits="userSpaceOnUse" />
    <linearGradient
       xlink:href="#linearGradient15953"
       id="linearGradient15955"
       x1="156.1033"
       y1="174.59212"
       x2="111.57855"
       y2="230.399"
       gradientUnits="userSpaceOnUse" />
    <linearGradient
       xlink:href="#linearGradient18869"
       id="linearGradient18871"
       x1="195.32761"
       y1="267.758"
       x2="250.67374"
       y2="271.02057"
       gradientUnits="userSpaceOnUse" />
    <linearGradient
       xlink:href="#linearGradient20333"
       id="linearGradient20335"
       x1="249.02289"
       y1="241.23007"
       x2="266.32849"
       y2="247.54257"
       gradientUnits="userSpaceOnUse" />
    <linearGradient
       xlink:href="#linearGradient21817"
       id="linearGradient21819"
       x1="151.37469"
       y1="220.01607"
       x2="225.27527"
       y2="251.51607"
       gradientUnits="userSpaceOnUse" />
    <linearGradient
       xlink:href="#linearGradient23300"
       id="linearGradient23302"
       x1="72.416954"
       y1="217.05293"
       x2="128.34821"
       y2="221.55293"
       gradientUnits="userSpaceOnUse" />
    <linearGradient
       xlink:href="#linearGradient26243"
       id="linearGradient26245"
       x1="-61.909622"
       y1="212.0341"
       x2="258.3248"
       y2="114.2841"
       gradientUnits="userSpaceOnUse" />
    <linearGradient
       xlink:href="#linearGradient45777"
       id="linearGradient45779"
       x1="74.969521"
       y1="205.15442"
       x2="267.02072"
       y2="116.41251"
       gradientUnits="userSpaceOnUse" />
  </defs>
  <g
     id="svgg"
     transform="translate(-78.166954,-102.72033)"
     style="display:inline">
    <circle
       style="display:none;fill:#ff0000;fill-opacity:1"
       id="path11159"
       cy="198.06285"
       cx="215.03735"
       r="94.782639" />
    <path
       id="path1"
       d="m 179.29983,271.69373 c -24.582,-16.588 -29.82669,-46.20798 -10.67669,-68.82398 4.15203,-4.90422 13.47167,-12.3095 14.4305,-13.16528 0.41914,-0.28621 11.00166,-6.26903 22.02,-11.66988 31.97018,-13.32582 48.20955,-35.50496 61.23996,-59.68702 -1.88458,-1.33525 -5.13687,-3.1665 -5.79875,-3.48877 -7.06432,-2.05206 -20.53546,0.72823 -30.00672,3.72741 -6.59591,2.08866 -31.58055,5.59951 -46.22077,9.69292 -12.8133,3.5826 -34.10431,24.4272 -59.94137,37.06934 -15.87,8.13228 -28.041465,20.71911 -33.466563,32.56252 3.206623,-0.70077 17.362923,-4.68429 49.527693,-12.03526 -1.65874,2.98228 -24.3711,48.13847 8.71286,81.97189 10.24383,10.47589 28.31597,19.87574 44.11022,23.2424 22.98173,4.89872 42.23644,1.12447 57.59111,-5.2411 -24.04954,-0.0329 -63.53741,-8.7679 -71.52148,-14.15519 z"
       stroke="none"
       fill="#fbfbfb"
       fill-rule="evenodd"
       style="display:inline;fill:url(#linearGradient45779);fill-opacity:1" />
    <path
       id="path15946"
       d="m 91.056204,198.35293 c 3.206623,-0.70077 17.186146,-5.12623 49.350916,-12.4772 -1.65874,2.98228 -24.3711,48.13847 8.71286,81.97189 -11.89786,-42.83737 -2.43403,-61.37426 7.33599,-91.99556 -30.68404,-2.17201 -49.9517,5.17523 -65.399766,22.50087 z"
       stroke="none"
       fill="#fbfbfb"
       fill-rule="evenodd"
       style="display:inline;fill:url(#linearGradient15955);fill-opacity:1" />
    <path
       id="path0"
       d="m 207.022,102.96959 c -22.66438,1.39167 -48.40453,11.88624 -64.55445,31.91756 -1.42358,1.76572 -4.09815,4.59761 -6.33127,8.07859 -0.13438,-3.31453 2.73118,-7.25745 5.00393,-9.65026 -9.34312,-6.76031 -35.78219,-8.29884 -50.549835,4.02793 18.806085,0.29622 29.203075,14.00424 33.787725,28.00449 15.98692,-5.58386 31.04481,-11.04502 46.8039,-11.0509 -0.093,-4.94223 0.0226,-11.23227 0.1595,-16.0735 2.71707,8.18897 5.29055,16.74785 10.40967,22.48341 -0.56054,-9.15904 -5.76278,-24.32747 -1.96904,-28.95341 1.97409,8.8304 6.12247,20.11081 11.40322,24.75221 -1.3054,-7.0363 -2.54861,-20.40679 -2.28335,-27.77171 1.60366,3.36498 4.60669,11.50767 6.87634,16.59734 0.30521,-4.57991 0.80237,-8.02835 1.06857,-12.20093 1.77911,-1.02338 1.92986,-1.16754 2.96709,-1.68541 20.762,-10.363 48.31422,-18.82172 60.76079,-16.54991 -19.61593,-10.82194 -35.88226,-13.01053 -53.55279,-11.9255 z"
       stroke="none"
       fill="#52646e"
       fill-rule="evenodd"
       style="display:inline;fill:url(#linearGradient26245);fill-opacity:1" />
    <path
       d="m 182.178,190.309 c -17.62,13.017 -25.36,26.316 -25.303,43.48 1.00388,49.69603 68.57356,65.48512 98.0333,50.2304 5.56972,9.12991 25.40001,18.88706 44.11697,12.40674 -30.12263,-14.26078 -34.22801,-53.28854 -30.07179,-77.44206 -12.03171,11.09847 -20.17031,45.45259 -17.93615,52.11698 -15.58003,9.63436 -65.21181,6.75216 -43.76487,-24.27921 -43.24251,11.65689 -43.30172,-29.89815 -31.72946,-48.57985 1.609,-2.427 2.82512,-4.02927 7.80062,-8.71077 4.6005,3.131 17.81738,12.26377 23.74138,20.11077 1.86752,2.47395 2.58982,3.53189 2.93308,3.96364 7.8913,-12.31247 -0.58089,-29.17597 -4.93346,-35.57784 -7.16579,3.2084 -15.21938,7.03913 -22.88662,12.2812 z"
       style="display:inline;fill:url(#linearGradient21819);fill-opacity:1;fill-rule:evenodd;stroke:none"
       id="path21797" />
    <path
       d="m 57.969326,40.24803 c -0.13438,-3.31453 2.73118,-7.25745 5.00393,-9.65026 -9.34312,-6.76031 -35.78219,-8.29884 -50.549835,4.02793 15.621692,-1.327137 30.26153,-0.759563 45.545905,5.62233 z"
       style="display:inline;fill:url(#linearGradient14492);fill-opacity:1;fill-rule:evenodd;stroke:none"
       id="path14448"
       transform="translate(78.166954,102.71771)" />
    <path
       id="path2"
       d="m 231.11218,136.21513 c -4.325,2.066 -10.479,5.97 -13.131,8.33 l -1.562,1.391 3.14,-1.517 c 16.08226,-5.84447 32.54263,-5.90607 19.67424,11.3946 3.34036,-2.92443 9.24216,-9.77923 11.70972,-13.17322 6.35266,-8.7377 -6.66796,-12.71338 -19.83096,-6.42538 z"
       stroke="none"
       fill="#56bdeb"
       fill-rule="evenodd"
       style="display:inline;fill:#ce998b;fill-opacity:1" />
    <path
       id="path17411"
       d="m 251.01733,271.10106 c -15.58003,9.63436 -65.21181,6.75216 -43.76487,-24.27921 -42.06804,34.58524 23.59796,39.51264 43.76487,24.27921 z"
       stroke="none"
       fill="#52646e"
       fill-rule="evenodd"
       style="display:inline;fill:url(#linearGradient18871);fill-opacity:1" />
    <path
       id="path20327"
       d="m 268.95348,218.98408 c -12.03171,11.09847 -20.17031,45.45259 -17.93615,52.11698 1.08155,-0.72604 6.25383,-4.51946 7.62677,-5.74005 -2.07831,-13.74368 5.62376,-40.26012 10.30938,-46.37693 z"
       stroke="none"
       fill="#52646e"
       fill-rule="evenodd"
       style="display:inline;fill:url(#linearGradient20335);fill-opacity:1" />
    <path
       d="m 78.166954,212.28107 c 12.726502,-5.39593 26.443896,-12.02044 40.280626,-15.42763 -0.58215,25.07176 11.39378,54.33373 30.65063,70.97021 -14.0496,-20.37394 -18.54246,-57.94174 -8.12921,-82.41765 -18.53003,-0.43309 -33.0851,4.90146 -48.649,11.86 5.20724,-10.32419 16.93423,-22.22351 23.82754,-26.9838 -22.472647,6.20246 -35.596193,26.15387 -37.980586,41.99887 z"
       style="display:inline;fill:url(#linearGradient23302);fill-opacity:1;fill-rule:evenodd;stroke:none"
       id="path23281" />
    <text
       xml:space="preserve"
       transform="translate(78.166954,102.71771)"
       id="text333"
       style="white-space:pre;shape-inside:url(#rect335);display:inline;fill:#000000;fill-opacity:0.204255" />
  </g>
</svg>
