<?xml version="1.0" encoding="UTF-8" standalone="no"?>
<!-- Created with Inkscape (http://www.inkscape.org/) -->

<svg
   version="1.1"
   id="svg2"
   width="1600"
   height="1600"
   viewBox="0 0 1600 1600"
   xmlns="http://www.w3.org/2000/svg"
   xmlns:svg="http://www.w3.org/2000/svg">
  <defs
     id="defs6" />
  <g
     id="g10"
     transform="matrix(1.3333333,0,0,-1.3333333,-533.33332,2041.3999)">
    <g
       id="g12"
       transform="matrix(0.1,0,0,0.1,1.5e-5,-68.950052)">
      <path
         d="m 15623.5,10882.1 c -242.7,242.7 -565.5,376.4 -908.8,376.4 -343.3,0 -666.1,-133.7 -908.9,-376.4 -131.4,-131.5 -230.8,-286.5 -294.4,-455.4 l -3260.1,545.9 c 0.6,13.4 0.9,26.9 0.9,40.4 0,186.8 -51.7,361.7 -141.6,511.2 l 1186.6,1203.1 c 177.8,-109.7 383,-168.4 597.2,-168.4 304.6,0 591,118.7 806.4,334.1 215.5,215.4 334.1,501.8 334.1,806.5 0,304.6 -118.6,591 -334.1,806.4 -215.4,215.5 -501.8,334.1 -806.4,334.1 -304.7,0 -591.1,-118.6 -806.5,-334.1 -215.4,-215.4 -334.1,-501.8 -334.1,-806.4 0,-224.8 64.7,-439.7 185.1,-623.4 L 9754.24,11874.9 c -146.4,84.8 -316.25,133.4 -497.25,133.4 -231.43,0 -444.67,-79.4 -613.88,-212.4 l -2122.85,1743.9 c 56.52,147.2 86.06,305.1 86.06,467.6 0,348.1 -135.55,675.3 -381.68,921.5 -246.13,246.1 -573.39,381.6 -921.48,381.6 -348.08,0 -675.34,-135.5 -921.47,-381.6 -246.14,-246.2 -381.69,-573.4 -381.69,-921.5 0,-348.1 135.55,-675.4 381.69,-921.5 246.13,-246.1 573.39,-381.7 921.47,-381.7 348.09,0 675.35,135.6 921.48,381.7 9.09,9.1 17.98,18.3 26.77,27.6 l 2087.96,-1715.2 c -49.98,-118.6 -77.63,-248.8 -77.63,-385.3 0,-29.6 1.38,-58.9 3.91,-87.8 l -1479.93,-570.3 c -147.86,147.5 -351.79,238.9 -576.66,238.9 -450.43,0 -816.87,-366.5 -816.87,-816.9 0,-450.5 366.44,-816.9 816.87,-816.9 450.43,0 816.87,366.4 816.87,816.9 0,44.4 -3.63,88.1 -10.5,130.7 l 1418.44,546.6 c 126.82,-186.2 315.09,-327.3 535.41,-394 l -474.8,-2871.7 c -327.32,-4.4 -634.4,-133.9 -866.35,-365.8 -236.02,-236 -366,-549.8 -366,-883.6 0,-333.8 129.98,-647.6 366,-883.6 236.02,-236 549.82,-366 883.61,-366 333.79,0 647.59,130 883.6,366 236.03,236 366.01,549.8 366.01,883.6 0,333.8 -129.98,647.6 -366.01,883.6 -119.11,119.1 -258.06,211.2 -409.37,273.2 l 486.99,2945.5 c 265.56,59 491.49,224.4 630.64,449 L 13430,9933.3 c 10,-328.3 142.5,-635.6 375.8,-868.9 242.8,-242.8 565.6,-376.5 908.9,-376.5 343.3,0 666.1,133.7 908.8,376.5 242.8,242.7 376.5,565.5 376.5,908.8 0,343.3 -133.7,666.1 -376.5,908.9"
         style="fill:#211d1d;fill-opacity:1;fill-rule:nonzero;stroke:none"
         id="path14" />
    </g>
  </g>
</svg>
